<?xml version="1.0" encoding="iso-8859-1"?>
<!-- Uploaded to: SVG Repo, www.svgrepo.com, Generator: SVG Repo Mixer Tools -->
<svg height="800px" width="800px" version="1.1" id="Layer_1" xmlns="http://www.w3.org/2000/svg" xmlns:xlink="http://www.w3.org/1999/xlink" 
	 viewBox="0 0 505.174 505.174" xml:space="preserve">
<g transform="translate(1 1)">
	<path style="fill:#FFD0A1;" d="M379.207,174.787v51.2c0,9.387-7.68,17.067-17.067,17.067c0,0-8.533,68.267-25.6,93.867
		c-7.68,11.093-17.067,27.307-42.667,36.693c-11.093,3.413-24.747,5.973-42.667,5.973s-31.573-2.56-42.667-5.973
		c-25.6-8.533-34.987-25.6-42.667-36.693c-17.067-25.6-25.6-93.867-25.6-93.867c-9.387,0-17.067-7.68-17.067-17.067v-51.2h128
		H379.207z M345.073,413.72L345.073,413.72c0,0-17.067,85.333-93.867,85.333S157.34,413.72,157.34,413.72s25.6,0,42.667-8.533
		c0,0,8.533-5.12,8.533-31.573c11.093,3.413,24.747,5.973,42.667,5.973s31.573-2.56,42.667-5.973c0,25.6,8.533,31.573,8.533,31.573
		C319.473,413.72,345.073,413.72,345.073,413.72z M490.14,473.454l8.533,25.6H387.74c0-32.427,7.68-77.653,8.533-82.773
		C469.66,424.814,483.313,452.974,490.14,473.454z M131.74,499.054h-128l8.533-25.6c7.68-23.04,22.187-52.907,110.933-58.88v0.853
		C123.207,416.28,131.74,464.92,131.74,499.054z"/>
	<path style="fill:#AAB1BA;" d="M396.273,416.28c-0.853,5.12-8.533,50.347-8.533,82.773H251.207c76.8,0,93.867-85.333,93.867-85.333
		C364.7,413.72,381.767,414.574,396.273,416.28z M251.207,499.054H131.74c0-34.133-8.533-83.627-8.533-83.627v-0.853
		c10.24-0.853,22.187-0.853,34.133-0.853C157.34,413.72,174.407,499.054,251.207,499.054z"/>
	<path style="fill:#ECF4F7;" d="M251.207,89.454c23.893,0,42.667,18.773,42.667,42.667s-18.773,42.667-42.667,42.667
		c-23.893,0-42.667-18.773-42.667-42.667S227.313,89.454,251.207,89.454"/>
	<path style="fill:#FFE079;" d="M407.367,140.654h5.973v34.133h-0.853h-33.28h-128c23.893,0,42.667-18.773,42.667-42.667
		S275.1,89.454,251.207,89.454c-23.893,0-42.667,18.773-42.667,42.667s18.773,42.667,42.667,42.667h-128H89.073v-34.133h5.973
		c16.213-60.587,67.413-107.52,130.56-116.907V10.093c0,0,12.8-5.973,25.6-5.973c12.8,0,25.6,5.973,25.6,5.973v13.653
		C339.953,33.134,391.153,80.067,407.367,140.654"/>
</g>
<path style="fill:#51565F;" d="M499.673,504.32c-1.707,0-3.413-0.853-4.267-2.56l-8.533-25.6c-5.12-15.36-14.507-43.52-86.187-53.76
	l-7.68,77.653c0,2.56-1.707,4.267-4.267,3.413c-2.56,0-4.267-1.707-4.267-4.267c0-28.16,5.973-65.707,7.68-78.507
	c-12.8-1.707-26.453-1.707-42.667-1.707c-4.267,16.213-27.307,85.333-97.28,85.333s-93.013-69.12-97.28-85.333
	c-9.387,0-17.92,0-25.6,0.853c1.707,11.947,7.68,51.2,7.68,80.213c0,2.56-1.707,4.267-4.267,4.267c-1.707,0-4.267-1.707-4.267-3.413
	l-8.533-80.213C32.9,427.52,23.514,457.387,16.687,476.16l-8.533,25.6c-0.853,2.56-3.413,3.413-5.12,2.56
	c-2.56-0.853-3.413-3.413-2.56-5.12l8.533-25.6c11.093-32.427,36.693-62.293,148.48-62.293l42.667-8.533
	c1.707-0.853,4.267,0.853,5.12,2.56c0.853,1.707,0,4.267-1.707,5.12c-12.8,6.827-30.72,8.533-39.253,8.533
	c5.12,17.92,25.6,76.8,88.747,76.8s83.627-59.733,88.747-76.8c-8.533-0.853-26.453-2.56-39.253-8.533
	c-1.707-0.853-2.56-3.413-1.707-5.12c0.853-1.707,2.56-3.413,5.12-2.56l42.667,8.533h0.853l0,0c17.92,0,34.133,0.853,47.787,2.56
	c0.853,0,1.707,0,1.707,0c0.853,0,0.853,0,1.707,0.853c68.267,8.533,87.04,34.133,95.573,59.733l8.533,25.6
	c0.853,2.56-0.853,4.267-2.56,5.12C500.527,504.32,500.527,504.32,499.673,504.32z M252.207,384.854
	c-59.733,0-76.8-26.453-87.893-42.667l-1.707-1.707c-15.36-23.04-23.893-77.653-25.6-92.16c-10.24-1.707-17.92-10.24-17.92-21.333
	V209.92c0-2.56,1.707-4.267,4.267-4.267c2.56,0,4.267,1.707,4.267,4.267v17.067c0,6.827,5.973,12.8,12.8,12.8
	c2.56,0,4.267,1.707,4.267,3.413c0,0.853,8.533,67.413,24.747,92.16l1.707,1.707c10.24,15.36,25.6,38.4,80.213,38.4
	s69.973-23.04,80.213-38.4l1.707-1.707c16.213-24.747,24.747-91.307,24.747-92.16c0-2.56,1.707-3.413,4.267-3.413
	c6.827,0,12.8-5.973,12.8-12.8V209.92c0-2.56,1.707-4.267,4.267-4.267s4.267,1.707,4.267,4.267v25.6c0,2.56-1.707,4.267-4.267,4.267
	l0,0c-3.413,4.267-7.68,6.827-13.653,8.533c-1.707,14.507-10.24,69.12-25.6,92.16l-1.707,1.707
	C329.007,358.4,311.94,384.854,252.207,384.854z M260.74,333.654h-17.067c-2.56,0-4.267-1.707-4.267-4.267s1.707-4.267,4.267-4.267
	h17.067c2.56,0,4.267,1.707,4.267,4.267S263.3,333.654,260.74,333.654z M286.34,308.054c-0.853,0-17.067,0-34.133-7.68
	c-17.067,7.68-33.28,7.68-34.133,7.68c-2.56,0-4.267-1.707-4.267-4.267c0-2.56,1.707-4.267,4.267-4.267c0,0,16.213,0,32.427-7.68
	c0.853-0.853,2.56-0.853,3.413,0c16.213,7.68,32.427,7.68,32.427,7.68c2.56,0,4.267,1.707,4.267,4.267
	C290.607,306.347,288.9,308.054,286.34,308.054z M294.873,239.787c-2.56,0-4.267-1.707-4.267-4.267v-4.267h-12.8
	c-2.56,0-4.267-1.707-4.267-4.267c0-2.56,1.707-4.267,4.267-4.267h34.133c2.56,0,4.267,1.707,4.267,4.267
	c0,2.56-1.707,4.267-4.267,4.267h-12.8v4.267C299.14,238.08,297.433,239.787,294.873,239.787z M209.54,239.787
	c-2.56,0-4.267-1.707-4.267-4.267v-4.267h-12.8c-2.56,0-4.267-1.707-4.267-4.267c0-2.56,1.707-4.267,4.267-4.267h34.133
	c2.56,0,4.267,1.707,4.267,4.267c0,2.56-1.707,4.267-4.267,4.267h-12.8v4.267C213.807,238.08,212.1,239.787,209.54,239.787z
	 M414.34,180.054H90.927c-2.56,0-4.267-1.707-4.267-4.267V143.36c0-0.853-0.853-0.853-0.853-1.707c0-2.56,1.707-4.267,4.267-4.267
	h2.56C110.553,77.654,160.9,31.574,222.34,20.48V10.24c0-1.707,0.853-3.413,2.56-4.267c0.853,0,13.653-5.973,27.307-5.973
	c13.653,0,26.453,5.973,27.307,5.973c1.707,0.853,2.56,2.56,2.56,4.267v10.24C343.513,31.573,393.86,76.8,411.78,137.387h2.56
	c2.56,0,4.267,1.707,4.267,4.267v34.133C418.607,178.347,416.9,180.054,414.34,180.054z M279.513,171.52h130.56v-25.6h-38.4
	c-2.56,0-4.267-1.707-4.267-4.267c0-2.56,1.707-4.267,4.267-4.267h30.72c-17.067-55.467-64-97.28-120.32-107.52V56.32
	c0,2.56-1.707,4.267-4.267,4.267s-4.267-1.707-4.267-4.267V13.654c-4.267-1.707-12.8-4.267-21.333-4.267
	c-8.533,0-17.067,2.56-21.333,4.267V56.32c0,2.56-1.707,4.267-4.267,4.267s-4.267-1.707-4.267-4.267V29.867
	c-57.173,11.093-103.253,52.907-120.32,107.52h30.72c2.56,0,4.267,1.707,4.267,4.267c0,2.56-1.707,4.267-4.267,4.267H95.193v25.6
	h130.56c-11.947-8.533-19.627-22.187-19.627-38.4c0-25.6,21.333-46.933,46.933-46.933s46.933,21.333,46.933,46.933
	C299.14,149.334,291.46,162.987,279.513,171.52z M252.207,94.72c-21.333,0-38.4,17.067-38.4,38.4s17.067,38.4,38.4,38.4
	s38.4-17.067,38.4-38.4S273.54,94.72,252.207,94.72z"/>
</svg>